# xmcd
#
# Track frame offsets:
#	150
#	21462
#	41260
#	58470
#	74610
#	88685
#	103650
#	121302
#	140680
#	157182
#	178717
#	193262
#	205942
#	225330
#	242635
#	261162
#	279272
#
# Disc length: 3982 seconds
#
# Revision: 4
# Processed by: cddbd v1.5.2PL0 Copyright (c) Steve Scherf et al.
# Submitted via: audiograbber 1.83.01
#
DISCID=010f8c11
DTITLE=Various Artist - Everlasting Love Songs
DYEAR=2000
DGENRE=Easy Listening
TTITLE0=Shania Twain - From This Moment On
TTITLE1=Sammy Kershaw - Love Of My Life
TTITLE2=Chely Wright - I Already Do
TTITLE3=George Strait - Baby Blue
TTITLE4=Lee Ann Womack - Some Things I Know
TTITLE5=Mark Wills - I Do (Cherish You)
TTITLE6=Toby Keith - Me Too
TTITLE7=Tracy Byrd - The Keeper Of The Stars
TTITLE8=Terri Clark - Now That I've Found You
TTITLE9=Raybon Bros. - Butterfly Kisses
TTITLE10=Reba McEntire - All This Time
TTITLE11=Mark Chesnutt - Your Love Is A Miracle
TTITLE12=Kathy Mattea - Sending Me Angels
TTITLE13=Billy Ray Cyrus - Give My Heart To You
TTITLE14=Olivia Newton John - I Honestly Love You
TTITLE15=Vince Gill - Look At Us
TTITLE16=The Mavericks - Loving You
EXTD=
EXTT0=
EXTT1=
EXTT2=
EXTT3=
EXTT4=
EXTT5=
EXTT6=
EXTT7=
EXTT8=
EXTT9=
EXTT10=
EXTT11=
EXTT12=
EXTT13=
EXTT14=
EXTT15=
EXTT16=
PLAYORDER=
